<?xml version="1.0" encoding="utf-8" standalone="no"?>
<!DOCTYPE svg PUBLIC "-//W3C//DTD SVG 1.1//EN"
  "http://www.w3.org/Graphics/SVG/1.1/DTD/svg11.dtd">
<svg xmlns:xlink="http://www.w3.org/1999/xlink" width="288pt" height="432pt" viewBox="0 0 288 432" xmlns="http://www.w3.org/2000/svg" version="1.1">
 <metadata>
  <rdf:RDF xmlns:dc="http://purl.org/dc/elements/1.1/" xmlns:cc="http://creativecommons.org/ns#" xmlns:rdf="http://www.w3.org/1999/02/22-rdf-syntax-ns#">
   <cc:Work>
    <dc:type rdf:resource="http://purl.org/dc/dcmitype/StillImage"/>
    <dc:date>2022-10-07T10:12:33.594372</dc:date>
    <dc:format>image/svg+xml</dc:format>
    <dc:creator>
     <cc:Agent>
      <dc:title>Matplotlib v3.6.0, https://matplotlib.org/</dc:title>
     </cc:Agent>
    </dc:creator>
   </cc:Work>
  </rdf:RDF>
 </metadata>
 <defs>
  <style type="text/css">*{stroke-linejoin: round; stroke-linecap: butt}</style>
 </defs>
 <g id="figure_1">
  <g id="patch_1">
   <path d="M 0 432 
L 288 432 
L 288 0 
L 0 0 
z
" style="fill: #ffffff"/>
  </g>
  <g id="axes_1">
   <g id="patch_2">
    <path d="M 47.72 109.775598 
L 277.2 109.775598 
L 277.2 11.603398 
L 47.72 11.603398 
z
" style="fill: #ffffff"/>
   </g>
   <g id="matplotlib.axis_1">
    <g id="xtick_1">
     <g id="line2d_1">
      <defs>
       <path id="m6d7057d1a4" d="M 0 0 
L 0 3.5 
" style="stroke: #000000; stroke-width: 0.8"/>
      </defs>
      <g>
       <use xlink:href="#m6d7057d1a4" x="86.850765" y="109.775598" style="stroke: #000000; stroke-width: 0.8"/>
      </g>
     </g>
     <g id="text_1">
      <!-- 25 -->
      <g transform="translate(80.488265 124.374036) scale(0.1 -0.1)">
       <defs>
        <path id="DejaVuSans-32" d="M 1228 531 
L 3431 531 
L 3431 0 
L 469 0 
L 469 531 
Q 828 903 1448 1529 
Q 2069 2156 2228 2338 
Q 2531 2678 2651 2914 
Q 2772 3150 2772 3378 
Q 2772 3750 2511 3984 
Q 2250 4219 1831 4219 
Q 1534 4219 1204 4116 
Q 875 4013 500 3803 
L 500 4441 
Q 881 4594 1212 4672 
Q 1544 4750 1819 4750 
Q 2544 4750 2975 4387 
Q 3406 4025 3406 3419 
Q 3406 3131 3298 2873 
Q 3191 2616 2906 2266 
Q 2828 2175 2409 1742 
Q 1991 1309 1228 531 
z
" transform="scale(0.015625)"/>
        <path id="DejaVuSans-35" d="M 691 4666 
L 3169 4666 
L 3169 4134 
L 1269 4134 
L 1269 2991 
Q 1406 3038 1543 3061 
Q 1681 3084 1819 3084 
Q 2600 3084 3056 2656 
Q 3513 2228 3513 1497 
Q 3513 744 3044 326 
Q 2575 -91 1722 -91 
Q 1428 -91 1123 -41 
Q 819 9 494 109 
L 494 744 
Q 775 591 1075 516 
Q 1375 441 1709 441 
Q 2250 441 2565 725 
Q 2881 1009 2881 1497 
Q 2881 1984 2565 2268 
Q 2250 2553 1709 2553 
Q 1456 2553 1204 2497 
Q 953 2441 691 2322 
L 691 4666 
z
" transform="scale(0.015625)"/>
       </defs>
       <use xlink:href="#DejaVuSans-32"/>
       <use xlink:href="#DejaVuSans-35" x="63.623047"/>
      </g>
     </g>
    </g>
    <g id="xtick_2">
     <g id="line2d_2">
      <g>
       <use xlink:href="#m6d7057d1a4" x="126.749726" y="109.775598" style="stroke: #000000; stroke-width: 0.8"/>
      </g>
     </g>
     <g id="text_2">
      <!-- 50 -->
      <g transform="translate(120.387226 124.374036) scale(0.1 -0.1)">
       <defs>
        <path id="DejaVuSans-30" d="M 2034 4250 
Q 1547 4250 1301 3770 
Q 1056 3291 1056 2328 
Q 1056 1369 1301 889 
Q 1547 409 2034 409 
Q 2525 409 2770 889 
Q 3016 1369 3016 2328 
Q 3016 3291 2770 3770 
Q 2525 4250 2034 4250 
z
M 2034 4750 
Q 2819 4750 3233 4129 
Q 3647 3509 3647 2328 
Q 3647 1150 3233 529 
Q 2819 -91 2034 -91 
Q 1250 -91 836 529 
Q 422 1150 422 2328 
Q 422 3509 836 4129 
Q 1250 4750 2034 4750 
z
" transform="scale(0.015625)"/>
       </defs>
       <use xlink:href="#DejaVuSans-35"/>
       <use xlink:href="#DejaVuSans-30" x="63.623047"/>
      </g>
     </g>
    </g>
    <g id="xtick_3">
     <g id="line2d_3">
      <g>
       <use xlink:href="#m6d7057d1a4" x="166.648687" y="109.775598" style="stroke: #000000; stroke-width: 0.8"/>
      </g>
     </g>
     <g id="text_3">
      <!-- 75 -->
      <g transform="translate(160.286187 124.374036) scale(0.1 -0.1)">
       <defs>
        <path id="DejaVuSans-37" d="M 525 4666 
L 3525 4666 
L 3525 4397 
L 1831 0 
L 1172 0 
L 2766 4134 
L 525 4134 
L 525 4666 
z
" transform="scale(0.015625)"/>
       </defs>
       <use xlink:href="#DejaVuSans-37"/>
       <use xlink:href="#DejaVuSans-35" x="63.623047"/>
      </g>
     </g>
    </g>
    <g id="xtick_4">
     <g id="line2d_4">
      <g>
       <use xlink:href="#m6d7057d1a4" x="206.547647" y="109.775598" style="stroke: #000000; stroke-width: 0.8"/>
      </g>
     </g>
     <g id="text_4">
      <!-- 100 -->
      <g transform="translate(197.003897 124.374036) scale(0.1 -0.1)">
       <defs>
        <path id="DejaVuSans-31" d="M 794 531 
L 1825 531 
L 1825 4091 
L 703 3866 
L 703 4441 
L 1819 4666 
L 2450 4666 
L 2450 531 
L 3481 531 
L 3481 0 
L 794 0 
L 794 531 
z
" transform="scale(0.015625)"/>
       </defs>
       <use xlink:href="#DejaVuSans-31"/>
       <use xlink:href="#DejaVuSans-30" x="63.623047"/>
       <use xlink:href="#DejaVuSans-30" x="127.246094"/>
      </g>
     </g>
    </g>
    <g id="xtick_5">
     <g id="line2d_5">
      <g>
       <use xlink:href="#m6d7057d1a4" x="246.446608" y="109.775598" style="stroke: #000000; stroke-width: 0.8"/>
      </g>
     </g>
     <g id="text_5">
      <!-- 125 -->
      <g transform="translate(236.902858 124.374036) scale(0.1 -0.1)">
       <use xlink:href="#DejaVuSans-31"/>
       <use xlink:href="#DejaVuSans-32" x="63.623047"/>
       <use xlink:href="#DejaVuSans-35" x="127.246094"/>
      </g>
     </g>
    </g>
    <g id="text_6">
     <!-- Torque (%MVC) -->
     <g transform="translate(124.342031 138.052161) scale(0.1 -0.1)">
      <defs>
       <path id="DejaVuSans-54" d="M -19 4666 
L 3928 4666 
L 3928 4134 
L 2272 4134 
L 2272 0 
L 1638 0 
L 1638 4134 
L -19 4134 
L -19 4666 
z
" transform="scale(0.015625)"/>
       <path id="DejaVuSans-6f" d="M 1959 3097 
Q 1497 3097 1228 2736 
Q 959 2375 959 1747 
Q 959 1119 1226 758 
Q 1494 397 1959 397 
Q 2419 397 2687 759 
Q 2956 1122 2956 1747 
Q 2956 2369 2687 2733 
Q 2419 3097 1959 3097 
z
M 1959 3584 
Q 2709 3584 3137 3096 
Q 3566 2609 3566 1747 
Q 3566 888 3137 398 
Q 2709 -91 1959 -91 
Q 1206 -91 779 398 
Q 353 888 353 1747 
Q 353 2609 779 3096 
Q 1206 3584 1959 3584 
z
" transform="scale(0.015625)"/>
       <path id="DejaVuSans-72" d="M 2631 2963 
Q 2534 3019 2420 3045 
Q 2306 3072 2169 3072 
Q 1681 3072 1420 2755 
Q 1159 2438 1159 1844 
L 1159 0 
L 581 0 
L 581 3500 
L 1159 3500 
L 1159 2956 
Q 1341 3275 1631 3429 
Q 1922 3584 2338 3584 
Q 2397 3584 2469 3576 
Q 2541 3569 2628 3553 
L 2631 2963 
z
" transform="scale(0.015625)"/>
       <path id="DejaVuSans-71" d="M 947 1747 
Q 947 1113 1208 752 
Q 1469 391 1925 391 
Q 2381 391 2643 752 
Q 2906 1113 2906 1747 
Q 2906 2381 2643 2742 
Q 2381 3103 1925 3103 
Q 1469 3103 1208 2742 
Q 947 2381 947 1747 
z
M 2906 525 
Q 2725 213 2448 61 
Q 2172 -91 1784 -91 
Q 1150 -91 751 415 
Q 353 922 353 1747 
Q 353 2572 751 3078 
Q 1150 3584 1784 3584 
Q 2172 3584 2448 3432 
Q 2725 3281 2906 2969 
L 2906 3500 
L 3481 3500 
L 3481 -1331 
L 2906 -1331 
L 2906 525 
z
" transform="scale(0.015625)"/>
       <path id="DejaVuSans-75" d="M 544 1381 
L 544 3500 
L 1119 3500 
L 1119 1403 
Q 1119 906 1312 657 
Q 1506 409 1894 409 
Q 2359 409 2629 706 
Q 2900 1003 2900 1516 
L 2900 3500 
L 3475 3500 
L 3475 0 
L 2900 0 
L 2900 538 
Q 2691 219 2414 64 
Q 2138 -91 1772 -91 
Q 1169 -91 856 284 
Q 544 659 544 1381 
z
M 1991 3584 
L 1991 3584 
z
" transform="scale(0.015625)"/>
       <path id="DejaVuSans-65" d="M 3597 1894 
L 3597 1613 
L 953 1613 
Q 991 1019 1311 708 
Q 1631 397 2203 397 
Q 2534 397 2845 478 
Q 3156 559 3463 722 
L 3463 178 
Q 3153 47 2828 -22 
Q 2503 -91 2169 -91 
Q 1331 -91 842 396 
Q 353 884 353 1716 
Q 353 2575 817 3079 
Q 1281 3584 2069 3584 
Q 2775 3584 3186 3129 
Q 3597 2675 3597 1894 
z
M 3022 2063 
Q 3016 2534 2758 2815 
Q 2500 3097 2075 3097 
Q 1594 3097 1305 2825 
Q 1016 2553 972 2059 
L 3022 2063 
z
" transform="scale(0.015625)"/>
       <path id="DejaVuSans-20" transform="scale(0.015625)"/>
       <path id="DejaVuSans-28" d="M 1984 4856 
Q 1566 4138 1362 3434 
Q 1159 2731 1159 2009 
Q 1159 1288 1364 580 
Q 1569 -128 1984 -844 
L 1484 -844 
Q 1016 -109 783 600 
Q 550 1309 550 2009 
Q 550 2706 781 3412 
Q 1013 4119 1484 4856 
L 1984 4856 
z
" transform="scale(0.015625)"/>
       <path id="DejaVuSans-25" d="M 4653 2053 
Q 4381 2053 4226 1822 
Q 4072 1591 4072 1178 
Q 4072 772 4226 539 
Q 4381 306 4653 306 
Q 4919 306 5073 539 
Q 5228 772 5228 1178 
Q 5228 1588 5073 1820 
Q 4919 2053 4653 2053 
z
M 4653 2450 
Q 5147 2450 5437 2106 
Q 5728 1763 5728 1178 
Q 5728 594 5436 251 
Q 5144 -91 4653 -91 
Q 4153 -91 3862 251 
Q 3572 594 3572 1178 
Q 3572 1766 3864 2108 
Q 4156 2450 4653 2450 
z
M 1428 4353 
Q 1159 4353 1004 4120 
Q 850 3888 850 3481 
Q 850 3069 1003 2837 
Q 1156 2606 1428 2606 
Q 1700 2606 1854 2837 
Q 2009 3069 2009 3481 
Q 2009 3884 1853 4118 
Q 1697 4353 1428 4353 
z
M 4250 4750 
L 4750 4750 
L 1831 -91 
L 1331 -91 
L 4250 4750 
z
M 1428 4750 
Q 1922 4750 2215 4408 
Q 2509 4066 2509 3481 
Q 2509 2891 2217 2550 
Q 1925 2209 1428 2209 
Q 931 2209 642 2551 
Q 353 2894 353 3481 
Q 353 4063 643 4406 
Q 934 4750 1428 4750 
z
" transform="scale(0.015625)"/>
       <path id="DejaVuSans-4d" d="M 628 4666 
L 1569 4666 
L 2759 1491 
L 3956 4666 
L 4897 4666 
L 4897 0 
L 4281 0 
L 4281 4097 
L 3078 897 
L 2444 897 
L 1241 4097 
L 1241 0 
L 628 0 
L 628 4666 
z
" transform="scale(0.015625)"/>
       <path id="DejaVuSans-56" d="M 1831 0 
L 50 4666 
L 709 4666 
L 2188 738 
L 3669 4666 
L 4325 4666 
L 2547 0 
L 1831 0 
z
" transform="scale(0.015625)"/>
       <path id="DejaVuSans-43" d="M 4122 4306 
L 4122 3641 
Q 3803 3938 3442 4084 
Q 3081 4231 2675 4231 
Q 1875 4231 1450 3742 
Q 1025 3253 1025 2328 
Q 1025 1406 1450 917 
Q 1875 428 2675 428 
Q 3081 428 3442 575 
Q 3803 722 4122 1019 
L 4122 359 
Q 3791 134 3420 21 
Q 3050 -91 2638 -91 
Q 1578 -91 968 557 
Q 359 1206 359 2328 
Q 359 3453 968 4101 
Q 1578 4750 2638 4750 
Q 3056 4750 3426 4639 
Q 3797 4528 4122 4306 
z
" transform="scale(0.015625)"/>
       <path id="DejaVuSans-29" d="M 513 4856 
L 1013 4856 
Q 1481 4119 1714 3412 
Q 1947 2706 1947 2009 
Q 1947 1309 1714 600 
Q 1481 -109 1013 -844 
L 513 -844 
Q 928 -128 1133 580 
Q 1338 1288 1338 2009 
Q 1338 2731 1133 3434 
Q 928 4138 513 4856 
z
" transform="scale(0.015625)"/>
      </defs>
      <use xlink:href="#DejaVuSans-54"/>
      <use xlink:href="#DejaVuSans-6f" x="44.083984"/>
      <use xlink:href="#DejaVuSans-72" x="105.265625"/>
      <use xlink:href="#DejaVuSans-71" x="144.628906"/>
      <use xlink:href="#DejaVuSans-75" x="208.105469"/>
      <use xlink:href="#DejaVuSans-65" x="271.484375"/>
      <use xlink:href="#DejaVuSans-20" x="333.007812"/>
      <use xlink:href="#DejaVuSans-28" x="364.794922"/>
      <use xlink:href="#DejaVuSans-25" x="403.808594"/>
      <use xlink:href="#DejaVuSans-4d" x="498.828125"/>
      <use xlink:href="#DejaVuSans-56" x="585.107422"/>
      <use xlink:href="#DejaVuSans-43" x="653.515625"/>
      <use xlink:href="#DejaVuSans-29" x="723.339844"/>
     </g>
    </g>
   </g>
   <g id="matplotlib.axis_2">
    <g id="ytick_1">
     <g id="line2d_6">
      <defs>
       <path id="m675c4dc182" d="M 0 0 
L -3.5 0 
" style="stroke: #000000; stroke-width: 0.8"/>
      </defs>
      <g>
       <use xlink:href="#m675c4dc182" x="47.72" y="106.149108" style="stroke: #000000; stroke-width: 0.8"/>
      </g>
     </g>
     <g id="text_7">
      <!-- 0.0 -->
      <g transform="translate(24.816875 109.948327) scale(0.1 -0.1)">
       <defs>
        <path id="DejaVuSans-2e" d="M 684 794 
L 1344 794 
L 1344 0 
L 684 0 
L 684 794 
z
" transform="scale(0.015625)"/>
       </defs>
       <use xlink:href="#DejaVuSans-30"/>
       <use xlink:href="#DejaVuSans-2e" x="63.623047"/>
       <use xlink:href="#DejaVuSans-30" x="95.410156"/>
      </g>
     </g>
    </g>
    <g id="ytick_2">
     <g id="line2d_7">
      <g>
       <use xlink:href="#m675c4dc182" x="47.72" y="83.304549" style="stroke: #000000; stroke-width: 0.8"/>
      </g>
     </g>
     <g id="text_8">
      <!-- 0.1 -->
      <g transform="translate(24.816875 87.103767) scale(0.1 -0.1)">
       <use xlink:href="#DejaVuSans-30"/>
       <use xlink:href="#DejaVuSans-2e" x="63.623047"/>
       <use xlink:href="#DejaVuSans-31" x="95.410156"/>
      </g>
     </g>
    </g>
    <g id="ytick_3">
     <g id="line2d_8">
      <g>
       <use xlink:href="#m675c4dc182" x="47.72" y="60.459989" style="stroke: #000000; stroke-width: 0.8"/>
      </g>
     </g>
     <g id="text_9">
      <!-- 0.2 -->
      <g transform="translate(24.816875 64.259208) scale(0.1 -0.1)">
       <use xlink:href="#DejaVuSans-30"/>
       <use xlink:href="#DejaVuSans-2e" x="63.623047"/>
       <use xlink:href="#DejaVuSans-32" x="95.410156"/>
      </g>
     </g>
    </g>
    <g id="ytick_4">
     <g id="line2d_9">
      <g>
       <use xlink:href="#m675c4dc182" x="47.72" y="37.61543" style="stroke: #000000; stroke-width: 0.8"/>
      </g>
     </g>
     <g id="text_10">
      <!-- 0.3 -->
      <g transform="translate(24.816875 41.414648) scale(0.1 -0.1)">
       <defs>
        <path id="DejaVuSans-33" d="M 2597 2516 
Q 3050 2419 3304 2112 
Q 3559 1806 3559 1356 
Q 3559 666 3084 287 
Q 2609 -91 1734 -91 
Q 1441 -91 1130 -33 
Q 819 25 488 141 
L 488 750 
Q 750 597 1062 519 
Q 1375 441 1716 441 
Q 2309 441 2620 675 
Q 2931 909 2931 1356 
Q 2931 1769 2642 2001 
Q 2353 2234 1838 2234 
L 1294 2234 
L 1294 2753 
L 1863 2753 
Q 2328 2753 2575 2939 
Q 2822 3125 2822 3475 
Q 2822 3834 2567 4026 
Q 2313 4219 1838 4219 
Q 1578 4219 1281 4162 
Q 984 4106 628 3988 
L 628 4550 
Q 988 4650 1302 4700 
Q 1616 4750 1894 4750 
Q 2613 4750 3031 4423 
Q 3450 4097 3450 3541 
Q 3450 3153 3228 2886 
Q 3006 2619 2597 2516 
z
" transform="scale(0.015625)"/>
       </defs>
       <use xlink:href="#DejaVuSans-30"/>
       <use xlink:href="#DejaVuSans-2e" x="63.623047"/>
       <use xlink:href="#DejaVuSans-33" x="95.410156"/>
      </g>
     </g>
    </g>
    <g id="ytick_5">
     <g id="line2d_10">
      <g>
       <use xlink:href="#m675c4dc182" x="47.72" y="14.77087" style="stroke: #000000; stroke-width: 0.8"/>
      </g>
     </g>
     <g id="text_11">
      <!-- 0.4 -->
      <g transform="translate(24.816875 18.570089) scale(0.1 -0.1)">
       <defs>
        <path id="DejaVuSans-34" d="M 2419 4116 
L 825 1625 
L 2419 1625 
L 2419 4116 
z
M 2253 4666 
L 3047 4666 
L 3047 1625 
L 3713 1625 
L 3713 1100 
L 3047 1100 
L 3047 0 
L 2419 0 
L 2419 1100 
L 313 1100 
L 313 1709 
L 2253 4666 
z
" transform="scale(0.015625)"/>
       </defs>
       <use xlink:href="#DejaVuSans-30"/>
       <use xlink:href="#DejaVuSans-2e" x="63.623047"/>
       <use xlink:href="#DejaVuSans-34" x="95.410156"/>
      </g>
     </g>
    </g>
    <g id="text_12">
     <!-- EMG SO (mV) -->
     <g transform="translate(18.737187 94.517623) rotate(-90) scale(0.1 -0.1)">
      <defs>
       <path id="DejaVuSans-45" d="M 628 4666 
L 3578 4666 
L 3578 4134 
L 1259 4134 
L 1259 2753 
L 3481 2753 
L 3481 2222 
L 1259 2222 
L 1259 531 
L 3634 531 
L 3634 0 
L 628 0 
L 628 4666 
z
" transform="scale(0.015625)"/>
       <path id="DejaVuSans-47" d="M 3809 666 
L 3809 1919 
L 2778 1919 
L 2778 2438 
L 4434 2438 
L 4434 434 
Q 4069 175 3628 42 
Q 3188 -91 2688 -91 
Q 1594 -91 976 548 
Q 359 1188 359 2328 
Q 359 3472 976 4111 
Q 1594 4750 2688 4750 
Q 3144 4750 3555 4637 
Q 3966 4525 4313 4306 
L 4313 3634 
Q 3963 3931 3569 4081 
Q 3175 4231 2741 4231 
Q 1884 4231 1454 3753 
Q 1025 3275 1025 2328 
Q 1025 1384 1454 906 
Q 1884 428 2741 428 
Q 3075 428 3337 486 
Q 3600 544 3809 666 
z
" transform="scale(0.015625)"/>
       <path id="DejaVuSans-53" d="M 3425 4513 
L 3425 3897 
Q 3066 4069 2747 4153 
Q 2428 4238 2131 4238 
Q 1616 4238 1336 4038 
Q 1056 3838 1056 3469 
Q 1056 3159 1242 3001 
Q 1428 2844 1947 2747 
L 2328 2669 
Q 3034 2534 3370 2195 
Q 3706 1856 3706 1288 
Q 3706 609 3251 259 
Q 2797 -91 1919 -91 
Q 1588 -91 1214 -16 
Q 841 59 441 206 
L 441 856 
Q 825 641 1194 531 
Q 1563 422 1919 422 
Q 2459 422 2753 634 
Q 3047 847 3047 1241 
Q 3047 1584 2836 1778 
Q 2625 1972 2144 2069 
L 1759 2144 
Q 1053 2284 737 2584 
Q 422 2884 422 3419 
Q 422 4038 858 4394 
Q 1294 4750 2059 4750 
Q 2388 4750 2728 4690 
Q 3069 4631 3425 4513 
z
" transform="scale(0.015625)"/>
       <path id="DejaVuSans-4f" d="M 2522 4238 
Q 1834 4238 1429 3725 
Q 1025 3213 1025 2328 
Q 1025 1447 1429 934 
Q 1834 422 2522 422 
Q 3209 422 3611 934 
Q 4013 1447 4013 2328 
Q 4013 3213 3611 3725 
Q 3209 4238 2522 4238 
z
M 2522 4750 
Q 3503 4750 4090 4092 
Q 4678 3434 4678 2328 
Q 4678 1225 4090 567 
Q 3503 -91 2522 -91 
Q 1538 -91 948 565 
Q 359 1222 359 2328 
Q 359 3434 948 4092 
Q 1538 4750 2522 4750 
z
" transform="scale(0.015625)"/>
       <path id="DejaVuSans-6d" d="M 3328 2828 
Q 3544 3216 3844 3400 
Q 4144 3584 4550 3584 
Q 5097 3584 5394 3201 
Q 5691 2819 5691 2113 
L 5691 0 
L 5113 0 
L 5113 2094 
Q 5113 2597 4934 2840 
Q 4756 3084 4391 3084 
Q 3944 3084 3684 2787 
Q 3425 2491 3425 1978 
L 3425 0 
L 2847 0 
L 2847 2094 
Q 2847 2600 2669 2842 
Q 2491 3084 2119 3084 
Q 1678 3084 1418 2786 
Q 1159 2488 1159 1978 
L 1159 0 
L 581 0 
L 581 3500 
L 1159 3500 
L 1159 2956 
Q 1356 3278 1631 3431 
Q 1906 3584 2284 3584 
Q 2666 3584 2933 3390 
Q 3200 3197 3328 2828 
z
" transform="scale(0.015625)"/>
      </defs>
      <use xlink:href="#DejaVuSans-45"/>
      <use xlink:href="#DejaVuSans-4d" x="63.183594"/>
      <use xlink:href="#DejaVuSans-47" x="149.462891"/>
      <use xlink:href="#DejaVuSans-20" x="226.953125"/>
      <use xlink:href="#DejaVuSans-53" x="258.740234"/>
      <use xlink:href="#DejaVuSans-4f" x="322.216797"/>
      <use xlink:href="#DejaVuSans-20" x="400.927734"/>
      <use xlink:href="#DejaVuSans-28" x="432.714844"/>
      <use xlink:href="#DejaVuSans-6d" x="471.728516"/>
      <use xlink:href="#DejaVuSans-56" x="569.140625"/>
      <use xlink:href="#DejaVuSans-29" x="637.548828"/>
     </g>
    </g>
   </g>
   <g id="line2d_11">
    <path d="M 52.63959 103.268639 
L 63.127615 99.379639 
L 70.038725 98.424117 
L 72.958579 99.48596 
L 87.486372 99.539477 
L 129.477951 95.204653 
L 171.315943 90.776246 
L 204.787046 68.679462 
L 206.529155 76.577584 
L 236.49881 78.004585 
" clip-path="url(#p9057dc2daa)" style="fill: none; stroke: #000000; stroke-opacity: 0.5; stroke-width: 1.5; stroke-linecap: square"/>
   </g>
   <g id="line2d_12">
    <path d="M 50.279763 104.158923 
L 58.55268 103.457441 
L 65.861883 103.526085 
L 75.777238 101.60033 
L 91.331043 101.317152 
L 126.603077 97.280364 
L 157.368912 91.587986 
L 166.174594 89.43403 
L 202.678255 78.501304 
L 196.649608 83.942216 
" clip-path="url(#p9057dc2daa)" style="fill: none; stroke: #000000; stroke-opacity: 0.5; stroke-width: 1.5; stroke-linecap: square"/>
   </g>
   <g id="line2d_13">
    <path d="M 49.514368 103.822064 
L 53.60995 104.116184 
L 66.381913 101.933083 
L 71.910014 97.88402 
L 85.902104 92.179555 
L 127.012663 83.820244 
L 167.342863 83.914859 
L 173.277268 66.565363 
L 217.474618 48.485166 
L 218.789929 63.781234 
" clip-path="url(#p9057dc2daa)" style="fill: none; stroke: #000000; stroke-opacity: 0.5; stroke-width: 1.5; stroke-linecap: square"/>
   </g>
   <g id="line2d_14">
    <path d="M 50.438832 101.691479 
L 56.044957 99.478541 
L 66.571228 89.26185 
L 73.281316 91.407468 
L 86.52079 85.872605 
L 126.680676 85.202704 
L 166.248018 48.961353 
L 179.525931 56.883068 
L 171.577556 58.242814 
L 189.395623 36.163149 
" clip-path="url(#p9057dc2daa)" style="fill: none; stroke: #000000; stroke-opacity: 0.5; stroke-width: 1.5; stroke-linecap: square"/>
   </g>
   <g id="line2d_15">
    <path d="M 49.906609 104.101238 
L 57.7982 101.980119 
L 64.402898 101.516436 
L 72.475334 98.379664 
L 88.108588 82.160866 
L 128.914684 86.454282 
L 169.624003 35.946863 
L 200.419695 36.451438 
L 204.30143 37.561909 
L 202.405793 36.450066 
" clip-path="url(#p9057dc2daa)" style="fill: none; stroke: #000000; stroke-opacity: 0.5; stroke-width: 1.5; stroke-linecap: square"/>
   </g>
   <g id="line2d_16">
    <path d="M 49.633589 103.393933 
L 55.541036 99.078712 
L 58.396888 99.507792 
L 71.834891 97.457174 
L 86.863335 87.595 
L 101.017217 88.048795 
L 126.535922 84.312452 
L 171.114748 58.83216 
L 199.261897 50.712303 
L 190.318553 66.62066 
" clip-path="url(#p9057dc2daa)" style="fill: none; stroke: #000000; stroke-opacity: 0.5; stroke-width: 1.5; stroke-linecap: square"/>
   </g>
   <g id="line2d_17">
    <path d="M 56.376531 101.204146 
L 55.770215 101.224116 
L 64.197027 98.41125 
L 71.711621 94.538625 
L 86.618375 87.210281 
L 101.712805 92.950807 
L 125.308426 86.295311 
L 188.822081 35.615923 
L 197.505128 28.974358 
L 202.7551 38.32352 
" clip-path="url(#p9057dc2daa)" style="fill: none; stroke: #000000; stroke-opacity: 0.5; stroke-width: 1.5; stroke-linecap: square"/>
   </g>
   <g id="line2d_18">
    <path d="M 47.72 105.313226 
L 49.701075 105.225154 
L 47.93111 105.180115 
L 53.412235 101.990027 
L 70.133257 101.126446 
L 84.657438 95.83836 
L 125.32358 93.956911 
L 163.143025 71.059337 
L 213.972647 39.353815 
L 200.111332 17.780311 
" clip-path="url(#p9057dc2daa)" style="fill: none; stroke: #000000; stroke-opacity: 0.5; stroke-width: 1.5; stroke-linecap: square"/>
   </g>
   <g id="line2d_19">
    <path d="M 48.550795 103.346564 
L 56.453448 103.34763 
L 61.607127 101.17668 
L 66.228459 96.90978 
L 123.248694 79.191825 
L 137.801778 72.070298 
L 165.537183 79.588762 
L 184.607458 58.296501 
L 211.063018 37.609205 
L 200.236061 61.216993 
" clip-path="url(#p9057dc2daa)" style="fill: none; stroke: #000000; stroke-opacity: 0.5; stroke-width: 1.5; stroke-linecap: square"/>
   </g>
   <g id="line2d_20">
    <path d="M 47.906172 102.39067 
L 54.982782 102.318888 
L 60.612478 101.58995 
L 69.473238 102.194903 
L 86.125371 91.808476 
L 124.490709 89.575981 
L 161.607091 95.794343 
L 188.279875 70.375236 
L 212.634227 82.467607 
L 205.479443 83.765003 
" clip-path="url(#p9057dc2daa)" style="fill: none; stroke: #000000; stroke-opacity: 0.5; stroke-width: 1.5; stroke-linecap: square"/>
   </g>
   <g id="line2d_21">
    <path d="M 49.94654 101.828067 
L 56.540331 99.888568 
L 59.110305 102.024782 
L 71.498785 95.732547 
L 89.126335 89.224165 
L 126.819056 73.750886 
L 158.204228 63.585263 
L 168.727359 52.011743 
L 177.356048 36.371766 
L 200.442292 20.941494 
" clip-path="url(#p9057dc2daa)" style="fill: none; stroke: #000000; stroke-opacity: 0.5; stroke-width: 1.5; stroke-linecap: square"/>
   </g>
   <g id="line2d_22">
    <path d="M 50.439648 104.760989 
L 63.199859 102.023267 
L 75.331853 102.203488 
L 91.434123 100.483449 
L 105.043229 98.64088 
L 173.292504 93.014013 
L 196.985675 90.891337 
L 222.145406 78.886294 
L 246.42651 88.724874 
L 277.2 76.161243 
" clip-path="url(#p9057dc2daa)" style="fill: none; stroke: #000000; stroke-opacity: 0.5; stroke-width: 1.5; stroke-linecap: square"/>
   </g>
   <g id="line2d_23">
    <path d="M 48.623938 103.40895 
L 54.861398 102.912864 
L 61.145828 99.769573 
L 70.604208 102.170077 
L 88.914512 96.731418 
L 127.611962 94.84763 
L 168.151366 82.933039 
L 177.758574 70.031651 
L 189.4805 59.03408 
L 207.961718 58.047915 
" clip-path="url(#p9057dc2daa)" style="fill: none; stroke: #000000; stroke-opacity: 0.5; stroke-width: 1.5; stroke-linecap: square"/>
   </g>
   <g id="line2d_24">
    <path d="M 51.960719 104.152952 
L 54.633274 102.441018 
L 62.197611 100.097151 
L 71.176162 96.505286 
L 86.828758 97.95341 
L 122.200321 93.117741 
L 141.938519 90.000586 
L 164.631314 78.303082 
L 172.159476 87.880361 
L 185.393033 76.322936 
" clip-path="url(#p9057dc2daa)" style="fill: none; stroke: #000000; stroke-opacity: 0.5; stroke-width: 1.5; stroke-linecap: square"/>
   </g>
   <g id="line2d_25">
    <path d="M 49.645677 103.202413 
L 56.100606 96.628325 
L 64.51828 97.055161 
L 71.272091 99.451244 
L 88.962759 96.12048 
L 128.503859 43.539915 
L 162.480834 68.553235 
L 193.212177 26.590764 
L 200.220779 64.246582 
L 203.810726 59.198814 
" clip-path="url(#p9057dc2daa)" style="fill: none; stroke: #000000; stroke-opacity: 0.5; stroke-width: 1.5; stroke-linecap: square"/>
   </g>
   <g id="line2d_26">
    <path d="M 49.245921 104.780256 
L 51.323638 102.404672 
L 58.560581 101.602211 
L 67.035846 100.637239 
L 81.80962 97.770113 
L 108.904457 93.624017 
L 155.833289 72.727958 
L 172.91708 57.004192 
L 183.593248 53.571588 
L 183.055481 74.696388 
" clip-path="url(#p9057dc2daa)" style="fill: none; stroke: #000000; stroke-opacity: 0.5; stroke-width: 1.5; stroke-linecap: square"/>
   </g>
   <g id="line2d_27">
    <path d="M 48.131308 103.623544 
L 54.172923 99.953708 
L 62.990424 99.586492 
L 70.987134 97.026147 
L 87.472954 97.389345 
L 113.60078 89.39507 
L 120.483678 84.195311 
L 164.68981 65.10181 
L 200.022217 52.820001 
L 192.139051 16.06577 
" clip-path="url(#p9057dc2daa)" style="fill: none; stroke: #000000; stroke-opacity: 0.5; stroke-width: 1.5; stroke-linecap: square"/>
   </g>
   <g id="line2d_28">
    <path d="M 50.744522 104.263958 
L 55.756444 99.481446 
L 65.989548 101.026652 
L 74.765112 100.510033 
L 92.835595 97.374228 
L 131.872609 90.197017 
L 172.62182 82.52845 
L 203.190894 72.730126 
L 213.656799 67.131708 
L 264.255217 52.258957 
" clip-path="url(#p9057dc2daa)" style="fill: none; stroke: #000000; stroke-opacity: 0.5; stroke-width: 1.5; stroke-linecap: square"/>
   </g>
   <g id="line2d_29">
    <path d="M 50.811653 100.894537 
L 55.635399 100.517798 
L 64.277271 92.80314 
L 73.364694 92.867049 
L 87.621642 88.494451 
L 102.9815 78.424158 
L 129.394938 78.454431 
L 176.851405 45.119851 
L 169.080877 74.15322 
L 193.762892 53.99291 
" clip-path="url(#p9057dc2daa)" style="fill: none; stroke: #000000; stroke-opacity: 0.5; stroke-width: 1.5; stroke-linecap: square"/>
   </g>
   <g id="line2d_30">
    <path d="M 50.515905 104.523233 
L 52.017178 103.791787 
L 56.542835 103.35224 
L 64.244231 101.372089 
L 87.327346 99.625265 
L 128.419613 79.959436 
L 167.526219 71.79382 
L 200.819991 63.890189 
L 196.155805 53.301452 
L 208.882914 47.886991 
" clip-path="url(#p9057dc2daa)" style="fill: none; stroke: #000000; stroke-opacity: 0.5; stroke-width: 1.5; stroke-linecap: square"/>
   </g>
   <g id="line2d_31">
    <path d="M 48.049299 102.314684 
L 54.903022 101.440934 
L 63.549996 97.790692 
L 72.260422 93.645972 
L 77.050307 91.778525 
L 88.583691 90.39822 
L 128.293419 75.293356 
L 167.293155 56.076869 
L 168.879881 58.124967 
L 201.187279 42.098014 
" clip-path="url(#p9057dc2daa)" style="fill: none; stroke: #000000; stroke-opacity: 0.5; stroke-width: 1.5; stroke-linecap: square"/>
   </g>
   <g id="line2d_32">
    <path d="M 53.429109 103.417182 
L 61.800908 102.406338 
L 68.232101 100.432114 
L 77.73393 100.143098 
L 89.588594 98.388113 
L 133.869661 90.223941 
L 170.87761 83.429568 
L 196.829188 80.551908 
L 233.394328 73.417532 
L 246.037705 69.759603 
" clip-path="url(#p9057dc2daa)" style="fill: none; stroke: #000000; stroke-opacity: 0.5; stroke-width: 1.5; stroke-linecap: square"/>
   </g>
   <g id="line2d_33">
    <path d="M 48.149521 104.133368 
L 55.025738 98.959113 
L 62.465524 99.392998 
L 69.805346 93.841129 
L 86.851488 87.885192 
L 104.16887 82.831784 
L 127.444391 82.311761 
L 169.609194 22.9173 
L 182.875256 29.374981 
L 187.072179 42.279801 
" clip-path="url(#p9057dc2daa)" style="fill: none; stroke: #000000; stroke-opacity: 0.5; stroke-width: 1.5; stroke-linecap: square"/>
   </g>
   <g id="line2d_34">
    <path d="M 48.176721 103.850736 
L 49.419779 104.824055 
L 50.15808 103.961166 
L 60.436938 101.737201 
L 71.76865 93.648103 
L 82.731213 94.928264 
L 101.274164 85.758773 
L 112.001374 77.29449 
L 162.976803 62.213816 
L 196.103701 63.868325 
" clip-path="url(#p9057dc2daa)" style="fill: none; stroke: #000000; stroke-opacity: 0.5; stroke-width: 1.5; stroke-linecap: square"/>
   </g>
   <g id="line2d_35">
    <path d="M 49.95141 103.912824 
L 56.255788 103.566441 
L 64.62749 101.62267 
L 72.003027 100.538517 
L 88.358174 99.798817 
L 129.584844 83.745851 
L 168.902804 80.795703 
L 206.788098 71.665434 
L 232.927911 84.592137 
L 242.793356 72.440144 
" clip-path="url(#p9057dc2daa)" style="fill: none; stroke: #000000; stroke-opacity: 0.5; stroke-width: 1.5; stroke-linecap: square"/>
   </g>
   <g id="patch_3">
    <path d="M 47.72 109.775598 
L 47.72 11.603398 
" style="fill: none; stroke: #000000; stroke-width: 0.8; stroke-linejoin: miter; stroke-linecap: square"/>
   </g>
   <g id="patch_4">
    <path d="M 47.72 109.775598 
L 277.2 109.775598 
" style="fill: none; stroke: #000000; stroke-width: 0.8; stroke-linejoin: miter; stroke-linecap: square"/>
   </g>
  </g>
  <g id="axes_2">
   <g id="patch_5">
    <path d="M 47.72 249.907799 
L 277.2 249.907799 
L 277.2 151.735598 
L 47.72 151.735598 
z
" style="fill: #ffffff"/>
   </g>
   <g id="matplotlib.axis_3">
    <g id="xtick_6">
     <g id="line2d_36">
      <g>
       <use xlink:href="#m6d7057d1a4" x="86.850765" y="249.907799" style="stroke: #000000; stroke-width: 0.8"/>
      </g>
     </g>
     <g id="text_13">
      <!-- 25 -->
      <g transform="translate(80.488265 264.506237) scale(0.1 -0.1)">
       <use xlink:href="#DejaVuSans-32"/>
       <use xlink:href="#DejaVuSans-35" x="63.623047"/>
      </g>
     </g>
    </g>
    <g id="xtick_7">
     <g id="line2d_37">
      <g>
       <use xlink:href="#m6d7057d1a4" x="126.749726" y="249.907799" style="stroke: #000000; stroke-width: 0.8"/>
      </g>
     </g>
     <g id="text_14">
      <!-- 50 -->
      <g transform="translate(120.387226 264.506237) scale(0.1 -0.1)">
       <use xlink:href="#DejaVuSans-35"/>
       <use xlink:href="#DejaVuSans-30" x="63.623047"/>
      </g>
     </g>
    </g>
    <g id="xtick_8">
     <g id="line2d_38">
      <g>
       <use xlink:href="#m6d7057d1a4" x="166.648687" y="249.907799" style="stroke: #000000; stroke-width: 0.8"/>
      </g>
     </g>
     <g id="text_15">
      <!-- 75 -->
      <g transform="translate(160.286187 264.506237) scale(0.1 -0.1)">
       <use xlink:href="#DejaVuSans-37"/>
       <use xlink:href="#DejaVuSans-35" x="63.623047"/>
      </g>
     </g>
    </g>
    <g id="xtick_9">
     <g id="line2d_39">
      <g>
       <use xlink:href="#m6d7057d1a4" x="206.547647" y="249.907799" style="stroke: #000000; stroke-width: 0.8"/>
      </g>
     </g>
     <g id="text_16">
      <!-- 100 -->
      <g transform="translate(197.003897 264.506237) scale(0.1 -0.1)">
       <use xlink:href="#DejaVuSans-31"/>
       <use xlink:href="#DejaVuSans-30" x="63.623047"/>
       <use xlink:href="#DejaVuSans-30" x="127.246094"/>
      </g>
     </g>
    </g>
    <g id="xtick_10">
     <g id="line2d_40">
      <g>
       <use xlink:href="#m6d7057d1a4" x="246.446608" y="249.907799" style="stroke: #000000; stroke-width: 0.8"/>
      </g>
     </g>
     <g id="text_17">
      <!-- 125 -->
      <g transform="translate(236.902858 264.506237) scale(0.1 -0.1)">
       <use xlink:href="#DejaVuSans-31"/>
       <use xlink:href="#DejaVuSans-32" x="63.623047"/>
       <use xlink:href="#DejaVuSans-35" x="127.246094"/>
      </g>
     </g>
    </g>
    <g id="text_18">
     <!-- Torque (%MVC) -->
     <g transform="translate(124.342031 278.184362) scale(0.1 -0.1)">
      <use xlink:href="#DejaVuSans-54"/>
      <use xlink:href="#DejaVuSans-6f" x="44.083984"/>
      <use xlink:href="#DejaVuSans-72" x="105.265625"/>
      <use xlink:href="#DejaVuSans-71" x="144.628906"/>
      <use xlink:href="#DejaVuSans-75" x="208.105469"/>
      <use xlink:href="#DejaVuSans-65" x="271.484375"/>
      <use xlink:href="#DejaVuSans-20" x="333.007812"/>
      <use xlink:href="#DejaVuSans-28" x="364.794922"/>
      <use xlink:href="#DejaVuSans-25" x="403.808594"/>
      <use xlink:href="#DejaVuSans-4d" x="498.828125"/>
      <use xlink:href="#DejaVuSans-56" x="585.107422"/>
      <use xlink:href="#DejaVuSans-43" x="653.515625"/>
      <use xlink:href="#DejaVuSans-29" x="723.339844"/>
     </g>
    </g>
   </g>
   <g id="matplotlib.axis_4">
    <g id="ytick_6">
     <g id="line2d_41">
      <g>
       <use xlink:href="#m675c4dc182" x="47.72" y="245.530573" style="stroke: #000000; stroke-width: 0.8"/>
      </g>
     </g>
     <g id="text_19">
      <!-- 0.0 -->
      <g transform="translate(24.816875 249.329792) scale(0.1 -0.1)">
       <use xlink:href="#DejaVuSans-30"/>
       <use xlink:href="#DejaVuSans-2e" x="63.623047"/>
       <use xlink:href="#DejaVuSans-30" x="95.410156"/>
      </g>
     </g>
    </g>
    <g id="ytick_7">
     <g id="line2d_42">
      <g>
       <use xlink:href="#m675c4dc182" x="47.72" y="225.473845" style="stroke: #000000; stroke-width: 0.8"/>
      </g>
     </g>
     <g id="text_20">
      <!-- 0.1 -->
      <g transform="translate(24.816875 229.273063) scale(0.1 -0.1)">
       <use xlink:href="#DejaVuSans-30"/>
       <use xlink:href="#DejaVuSans-2e" x="63.623047"/>
       <use xlink:href="#DejaVuSans-31" x="95.410156"/>
      </g>
     </g>
    </g>
    <g id="ytick_8">
     <g id="line2d_43">
      <g>
       <use xlink:href="#m675c4dc182" x="47.72" y="205.417116" style="stroke: #000000; stroke-width: 0.8"/>
      </g>
     </g>
     <g id="text_21">
      <!-- 0.2 -->
      <g transform="translate(24.816875 209.216335) scale(0.1 -0.1)">
       <use xlink:href="#DejaVuSans-30"/>
       <use xlink:href="#DejaVuSans-2e" x="63.623047"/>
       <use xlink:href="#DejaVuSans-32" x="95.410156"/>
      </g>
     </g>
    </g>
    <g id="ytick_9">
     <g id="line2d_44">
      <g>
       <use xlink:href="#m675c4dc182" x="47.72" y="185.360388" style="stroke: #000000; stroke-width: 0.8"/>
      </g>
     </g>
     <g id="text_22">
      <!-- 0.3 -->
      <g transform="translate(24.816875 189.159607) scale(0.1 -0.1)">
       <use xlink:href="#DejaVuSans-30"/>
       <use xlink:href="#DejaVuSans-2e" x="63.623047"/>
       <use xlink:href="#DejaVuSans-33" x="95.410156"/>
      </g>
     </g>
    </g>
    <g id="ytick_10">
     <g id="line2d_45">
      <g>
       <use xlink:href="#m675c4dc182" x="47.72" y="165.30366" style="stroke: #000000; stroke-width: 0.8"/>
      </g>
     </g>
     <g id="text_23">
      <!-- 0.4 -->
      <g transform="translate(24.816875 169.102879) scale(0.1 -0.1)">
       <use xlink:href="#DejaVuSans-30"/>
       <use xlink:href="#DejaVuSans-2e" x="63.623047"/>
       <use xlink:href="#DejaVuSans-34" x="95.410156"/>
      </g>
     </g>
    </g>
    <g id="text_24">
     <!-- EMG MG (mV) -->
     <g transform="translate(18.737187 235.727949) rotate(-90) scale(0.1 -0.1)">
      <use xlink:href="#DejaVuSans-45"/>
      <use xlink:href="#DejaVuSans-4d" x="63.183594"/>
      <use xlink:href="#DejaVuSans-47" x="149.462891"/>
      <use xlink:href="#DejaVuSans-20" x="226.953125"/>
      <use xlink:href="#DejaVuSans-4d" x="258.740234"/>
      <use xlink:href="#DejaVuSans-47" x="345.019531"/>
      <use xlink:href="#DejaVuSans-20" x="422.509766"/>
      <use xlink:href="#DejaVuSans-28" x="454.296875"/>
      <use xlink:href="#DejaVuSans-6d" x="493.310547"/>
      <use xlink:href="#DejaVuSans-56" x="590.722656"/>
      <use xlink:href="#DejaVuSans-29" x="659.130859"/>
     </g>
    </g>
   </g>
   <g id="line2d_46">
    <path d="M 52.63959 243.21297 
L 63.127615 242.622992 
L 70.038725 242.936447 
L 72.958579 242.265424 
L 87.486372 239.152385 
L 129.477951 229.970515 
L 171.315943 231.085279 
L 204.787046 218.243937 
L 206.529155 223.516186 
L 236.49881 211.669162 
" clip-path="url(#pa182bda6fe)" style="fill: none; stroke: #000000; stroke-opacity: 0.5; stroke-width: 1.5; stroke-linecap: square"/>
   </g>
   <g id="line2d_47">
    <path d="M 50.279763 241.467542 
L 58.55268 242.008727 
L 65.861883 241.045758 
L 75.777238 241.113653 
L 91.331043 240.513085 
L 126.603077 238.630581 
L 157.368912 236.856346 
L 166.174594 232.138113 
L 202.678255 227.434412 
L 196.649608 222.795361 
" clip-path="url(#pa182bda6fe)" style="fill: none; stroke: #000000; stroke-opacity: 0.5; stroke-width: 1.5; stroke-linecap: square"/>
   </g>
   <g id="line2d_48">
    <path d="M 49.514368 243.32599 
L 53.60995 243.594145 
L 66.381913 242.904206 
L 71.910014 242.650741 
L 85.902104 241.777653 
L 127.012663 238.863095 
L 167.342863 239.674709 
L 173.277268 235.532984 
L 217.474618 231.440965 
L 218.789929 233.890757 
" clip-path="url(#pa182bda6fe)" style="fill: none; stroke: #000000; stroke-opacity: 0.5; stroke-width: 1.5; stroke-linecap: square"/>
   </g>
   <g id="line2d_49">
    <path d="M 50.438832 242.088198 
L 56.044957 242.305843 
L 66.571228 241.65901 
L 73.281316 242.053233 
L 86.52079 240.374215 
L 126.680676 232.677132 
L 166.248018 209.888343 
L 179.525931 202.911704 
L 171.577556 216.629587 
L 189.395623 189.204902 
" clip-path="url(#pa182bda6fe)" style="fill: none; stroke: #000000; stroke-opacity: 0.5; stroke-width: 1.5; stroke-linecap: square"/>
   </g>
   <g id="line2d_50">
    <path d="M 49.906609 242.665955 
L 57.7982 242.545133 
L 64.402898 242.354652 
L 72.475334 242.100615 
L 88.108588 239.316497 
L 128.914684 236.388786 
L 169.624003 193.92835 
L 200.419695 156.197971 
L 204.30143 178.286069 
L 202.405793 174.958005 
" clip-path="url(#pa182bda6fe)" style="fill: none; stroke: #000000; stroke-opacity: 0.5; stroke-width: 1.5; stroke-linecap: square"/>
   </g>
   <g id="line2d_51">
    <path d="M 49.633589 241.660619 
L 55.541036 241.483221 
L 58.396888 241.912067 
L 71.834891 242.002759 
L 86.863335 240.07302 
L 101.017217 236.601073 
L 126.535922 237.388193 
L 171.114748 203.047781 
L 199.261897 169.198083 
L 190.318553 204.999805 
" clip-path="url(#pa182bda6fe)" style="fill: none; stroke: #000000; stroke-opacity: 0.5; stroke-width: 1.5; stroke-linecap: square"/>
   </g>
   <g id="line2d_52">
    <path d="M 56.376531 242.250108 
L 55.770215 242.441593 
L 64.197027 241.331439 
L 71.711621 242.200437 
L 86.618375 237.861435 
L 101.712805 237.400507 
L 125.308426 233.728046 
L 188.822081 202.498169 
L 197.505128 195.329801 
L 202.7551 192.908359 
" clip-path="url(#pa182bda6fe)" style="fill: none; stroke: #000000; stroke-opacity: 0.5; stroke-width: 1.5; stroke-linecap: square"/>
   </g>
   <g id="line2d_53">
    <path d="M 47.72 244.517465 
L 49.701075 244.545842 
L 47.93111 244.467505 
L 53.412235 244.080964 
L 70.133257 241.516144 
L 84.657438 240.611894 
L 125.32358 237.216535 
L 163.143025 222.871846 
L 213.972647 202.507839 
L 200.111332 205.865215 
" clip-path="url(#pa182bda6fe)" style="fill: none; stroke: #000000; stroke-opacity: 0.5; stroke-width: 1.5; stroke-linecap: square"/>
   </g>
   <g id="line2d_54">
    <path d="M 48.550795 237.431785 
L 56.453448 238.8776 
L 61.607127 235.191221 
L 66.228459 233.479557 
L 123.248694 227.521381 
L 137.801778 229.153159 
L 165.537183 216.627233 
L 184.607458 222.549824 
L 211.063018 198.017071 
L 200.236061 219.228024 
" clip-path="url(#pa182bda6fe)" style="fill: none; stroke: #000000; stroke-opacity: 0.5; stroke-width: 1.5; stroke-linecap: square"/>
   </g>
   <g id="line2d_55">
    <path d="M 47.906172 242.307742 
L 54.982782 242.049514 
L 60.612478 242.181304 
L 69.473238 241.201128 
L 86.125371 241.438561 
L 124.490709 239.710703 
L 161.607091 238.44976 
L 188.279875 232.22179 
L 212.634227 232.068 
L 205.479443 237.003821 
" clip-path="url(#pa182bda6fe)" style="fill: none; stroke: #000000; stroke-opacity: 0.5; stroke-width: 1.5; stroke-linecap: square"/>
   </g>
   <g id="line2d_56">
    <path d="M 49.94654 242.469068 
L 56.540331 242.648276 
L 59.110305 242.55988 
L 71.498785 240.887501 
L 89.126335 238.45727 
L 126.819056 228.072677 
L 158.204228 210.279249 
L 168.727359 204.807772 
L 177.356048 208.364705 
L 200.442292 192.425189 
" clip-path="url(#pa182bda6fe)" style="fill: none; stroke: #000000; stroke-opacity: 0.5; stroke-width: 1.5; stroke-linecap: square"/>
   </g>
   <g id="line2d_57">
    <path d="M 50.439648 243.592951 
L 63.199859 243.407218 
L 75.331853 242.58646 
L 91.434123 241.857786 
L 105.043229 241.761404 
L 173.292504 239.53804 
L 196.985675 238.290701 
L 222.145406 224.761468 
L 246.42651 235.036769 
L 277.2 234.516715 
" clip-path="url(#pa182bda6fe)" style="fill: none; stroke: #000000; stroke-opacity: 0.5; stroke-width: 1.5; stroke-linecap: square"/>
   </g>
   <g id="line2d_58">
    <path d="M 48.623938 238.875384 
L 54.861398 241.148082 
L 61.145828 240.989801 
L 70.604208 238.652091 
L 88.914512 238.703696 
L 127.611962 232.965647 
L 168.151366 225.452209 
L 177.758574 223.733142 
L 189.4805 217.881934 
L 207.961718 215.882873 
" clip-path="url(#pa182bda6fe)" style="fill: none; stroke: #000000; stroke-opacity: 0.5; stroke-width: 1.5; stroke-linecap: square"/>
   </g>
   <g id="line2d_59">
    <path d="M 51.960719 241.949156 
L 54.633274 242.032067 
L 62.197611 241.827546 
L 71.176162 239.17627 
L 86.828758 240.705673 
L 122.200321 233.97119 
L 141.938519 234.723467 
L 164.631314 227.087316 
L 172.159476 226.859738 
L 185.393033 228.603169 
" clip-path="url(#pa182bda6fe)" style="fill: none; stroke: #000000; stroke-opacity: 0.5; stroke-width: 1.5; stroke-linecap: square"/>
   </g>
   <g id="line2d_60">
    <path d="M 49.645677 241.482593 
L 56.100606 241.637438 
L 64.51828 237.869609 
L 71.272091 237.910856 
L 88.962759 237.042095 
L 128.503859 226.54263 
L 162.480834 221.773043 
L 193.212177 191.829256 
L 200.220779 206.239398 
L 203.810726 205.476233 
" clip-path="url(#pa182bda6fe)" style="fill: none; stroke: #000000; stroke-opacity: 0.5; stroke-width: 1.5; stroke-linecap: square"/>
   </g>
   <g id="line2d_61">
    <path d="M 49.245921 243.530764 
L 51.323638 243.055972 
L 58.560581 243.055271 
L 67.035846 243.095256 
L 81.80962 241.452859 
L 108.904457 240.262624 
L 155.833289 233.000954 
L 172.91708 226.793056 
L 183.593248 222.230747 
L 183.055481 232.10724 
" clip-path="url(#pa182bda6fe)" style="fill: none; stroke: #000000; stroke-opacity: 0.5; stroke-width: 1.5; stroke-linecap: square"/>
   </g>
   <g id="line2d_62">
    <path d="M 48.131308 245.080095 
L 54.172923 245.069051 
L 62.990424 244.886831 
L 70.987134 245.134948 
L 87.472954 245.003524 
L 113.60078 244.818167 
L 120.483678 245.42288 
L 164.68981 245.445426 
L 200.022217 245.434233 
L 192.139051 200.360903 
" clip-path="url(#pa182bda6fe)" style="fill: none; stroke: #000000; stroke-opacity: 0.5; stroke-width: 1.5; stroke-linecap: square"/>
   </g>
   <g id="line2d_63">
    <path d="M 50.744522 242.265383 
L 55.756444 241.108701 
L 65.989548 241.60996 
L 74.765112 241.216585 
L 92.835595 238.636328 
L 131.872609 236.765864 
L 172.62182 236.195384 
L 203.190894 232.93971 
L 213.656799 234.410723 
L 264.255217 228.873351 
" clip-path="url(#pa182bda6fe)" style="fill: none; stroke: #000000; stroke-opacity: 0.5; stroke-width: 1.5; stroke-linecap: square"/>
   </g>
   <g id="line2d_64">
    <path d="M 50.811653 243.787262 
L 55.635399 243.703033 
L 64.277271 242.246337 
L 73.364694 240.532306 
L 87.621642 240.741446 
L 102.9815 235.762175 
L 129.394938 230.049296 
L 176.851405 200.440426 
L 169.080877 215.397634 
L 193.762892 200.900117 
" clip-path="url(#pa182bda6fe)" style="fill: none; stroke: #000000; stroke-opacity: 0.5; stroke-width: 1.5; stroke-linecap: square"/>
   </g>
   <g id="line2d_65">
    <path d="M 50.515905 243.0077 
L 52.017178 242.712855 
L 56.542835 242.410441 
L 64.244231 242.479826 
L 87.327346 240.936512 
L 128.419613 234.318264 
L 167.526219 230.86163 
L 200.819991 218.820811 
L 196.155805 207.593455 
L 208.882914 198.149863 
" clip-path="url(#pa182bda6fe)" style="fill: none; stroke: #000000; stroke-opacity: 0.5; stroke-width: 1.5; stroke-linecap: square"/>
   </g>
   <g id="line2d_66">
    <path d="M 48.049299 244.21919 
L 54.903022 243.843101 
L 63.549996 242.433262 
L 72.260422 240.350895 
L 77.050307 239.649954 
L 88.583691 235.304054 
L 128.293419 233.932495 
L 167.293155 219.090426 
L 168.879881 190.023138 
L 201.187279 201.466687 
" clip-path="url(#pa182bda6fe)" style="fill: none; stroke: #000000; stroke-opacity: 0.5; stroke-width: 1.5; stroke-linecap: square"/>
   </g>
   <g id="line2d_67">
    <path d="M 53.429109 242.231867 
L 61.800908 242.552944 
L 68.232101 241.419522 
L 77.73393 242.118239 
L 89.588594 239.96219 
L 133.869661 238.665468 
L 170.87761 232.420032 
L 196.829188 229.075724 
L 233.394328 218.0723 
L 246.037705 215.832672 
" clip-path="url(#pa182bda6fe)" style="fill: none; stroke: #000000; stroke-opacity: 0.5; stroke-width: 1.5; stroke-linecap: square"/>
   </g>
   <g id="line2d_68">
    <path d="M 48.149521 243.018668 
L 55.025738 242.273497 
L 62.465524 242.538042 
L 69.805346 241.643733 
L 86.851488 240.313274 
L 104.16887 240.007583 
L 127.444391 237.275891 
L 169.609194 221.725691 
L 182.875256 218.937844 
L 187.072179 228.579388 
" clip-path="url(#pa182bda6fe)" style="fill: none; stroke: #000000; stroke-opacity: 0.5; stroke-width: 1.5; stroke-linecap: square"/>
   </g>
   <g id="line2d_69">
    <path d="M 48.176721 243.519609 
L 49.419779 244.164858 
L 50.15808 243.218517 
L 60.436938 241.85208 
L 71.76865 241.052571 
L 82.731213 235.084925 
L 101.274164 230.923163 
L 112.001374 219.384267 
L 162.976803 206.369532 
L 196.103701 203.091142 
" clip-path="url(#pa182bda6fe)" style="fill: none; stroke: #000000; stroke-opacity: 0.5; stroke-width: 1.5; stroke-linecap: square"/>
   </g>
   <g id="line2d_70">
    <path d="M 49.95141 243.803864 
L 56.255788 242.046607 
L 64.62749 238.702828 
L 72.003027 239.245802 
L 88.358174 231.27208 
L 129.584844 231.700526 
L 168.902804 215.294085 
L 206.788098 208.961483 
L 232.927911 203.859489 
L 242.793356 192.695959 
" clip-path="url(#pa182bda6fe)" style="fill: none; stroke: #000000; stroke-opacity: 0.5; stroke-width: 1.5; stroke-linecap: square"/>
   </g>
   <g id="patch_6">
    <path d="M 47.72 249.907799 
L 47.72 151.735598 
" style="fill: none; stroke: #000000; stroke-width: 0.8; stroke-linejoin: miter; stroke-linecap: square"/>
   </g>
   <g id="patch_7">
    <path d="M 47.72 249.907799 
L 277.2 249.907799 
" style="fill: none; stroke: #000000; stroke-width: 0.8; stroke-linejoin: miter; stroke-linecap: square"/>
   </g>
  </g>
  <g id="axes_3">
   <g id="patch_8">
    <path d="M 47.72 390.04 
L 277.2 390.04 
L 277.2 291.867799 
L 47.72 291.867799 
z
" style="fill: #ffffff"/>
   </g>
   <g id="matplotlib.axis_5">
    <g id="xtick_11">
     <g id="line2d_71">
      <g>
       <use xlink:href="#m6d7057d1a4" x="86.850765" y="390.04" style="stroke: #000000; stroke-width: 0.8"/>
      </g>
     </g>
     <g id="text_25">
      <!-- 25 -->
      <g transform="translate(80.488265 404.638438) scale(0.1 -0.1)">
       <use xlink:href="#DejaVuSans-32"/>
       <use xlink:href="#DejaVuSans-35" x="63.623047"/>
      </g>
     </g>
    </g>
    <g id="xtick_12">
     <g id="line2d_72">
      <g>
       <use xlink:href="#m6d7057d1a4" x="126.749726" y="390.04" style="stroke: #000000; stroke-width: 0.8"/>
      </g>
     </g>
     <g id="text_26">
      <!-- 50 -->
      <g transform="translate(120.387226 404.638438) scale(0.1 -0.1)">
       <use xlink:href="#DejaVuSans-35"/>
       <use xlink:href="#DejaVuSans-30" x="63.623047"/>
      </g>
     </g>
    </g>
    <g id="xtick_13">
     <g id="line2d_73">
      <g>
       <use xlink:href="#m6d7057d1a4" x="166.648687" y="390.04" style="stroke: #000000; stroke-width: 0.8"/>
      </g>
     </g>
     <g id="text_27">
      <!-- 75 -->
      <g transform="translate(160.286187 404.638438) scale(0.1 -0.1)">
       <use xlink:href="#DejaVuSans-37"/>
       <use xlink:href="#DejaVuSans-35" x="63.623047"/>
      </g>
     </g>
    </g>
    <g id="xtick_14">
     <g id="line2d_74">
      <g>
       <use xlink:href="#m6d7057d1a4" x="206.547647" y="390.04" style="stroke: #000000; stroke-width: 0.8"/>
      </g>
     </g>
     <g id="text_28">
      <!-- 100 -->
      <g transform="translate(197.003897 404.638438) scale(0.1 -0.1)">
       <use xlink:href="#DejaVuSans-31"/>
       <use xlink:href="#DejaVuSans-30" x="63.623047"/>
       <use xlink:href="#DejaVuSans-30" x="127.246094"/>
      </g>
     </g>
    </g>
    <g id="xtick_15">
     <g id="line2d_75">
      <g>
       <use xlink:href="#m6d7057d1a4" x="246.446608" y="390.04" style="stroke: #000000; stroke-width: 0.8"/>
      </g>
     </g>
     <g id="text_29">
      <!-- 125 -->
      <g transform="translate(236.902858 404.638438) scale(0.1 -0.1)">
       <use xlink:href="#DejaVuSans-31"/>
       <use xlink:href="#DejaVuSans-32" x="63.623047"/>
       <use xlink:href="#DejaVuSans-35" x="127.246094"/>
      </g>
     </g>
    </g>
    <g id="text_30">
     <!-- Torque (%MVC) -->
     <g transform="translate(124.342031 418.316562) scale(0.1 -0.1)">
      <use xlink:href="#DejaVuSans-54"/>
      <use xlink:href="#DejaVuSans-6f" x="44.083984"/>
      <use xlink:href="#DejaVuSans-72" x="105.265625"/>
      <use xlink:href="#DejaVuSans-71" x="144.628906"/>
      <use xlink:href="#DejaVuSans-75" x="208.105469"/>
      <use xlink:href="#DejaVuSans-65" x="271.484375"/>
      <use xlink:href="#DejaVuSans-20" x="333.007812"/>
      <use xlink:href="#DejaVuSans-28" x="364.794922"/>
      <use xlink:href="#DejaVuSans-25" x="403.808594"/>
      <use xlink:href="#DejaVuSans-4d" x="498.828125"/>
      <use xlink:href="#DejaVuSans-56" x="585.107422"/>
      <use xlink:href="#DejaVuSans-43" x="653.515625"/>
      <use xlink:href="#DejaVuSans-29" x="723.339844"/>
     </g>
    </g>
   </g>
   <g id="matplotlib.axis_6">
    <g id="ytick_11">
     <g id="line2d_76">
      <g>
       <use xlink:href="#m675c4dc182" x="47.72" y="386.233912" style="stroke: #000000; stroke-width: 0.8"/>
      </g>
     </g>
     <g id="text_31">
      <!-- 0.0 -->
      <g transform="translate(24.816875 390.033131) scale(0.1 -0.1)">
       <use xlink:href="#DejaVuSans-30"/>
       <use xlink:href="#DejaVuSans-2e" x="63.623047"/>
       <use xlink:href="#DejaVuSans-30" x="95.410156"/>
      </g>
     </g>
    </g>
    <g id="ytick_12">
     <g id="line2d_77">
      <g>
       <use xlink:href="#m675c4dc182" x="47.72" y="365.264651" style="stroke: #000000; stroke-width: 0.8"/>
      </g>
     </g>
     <g id="text_32">
      <!-- 0.1 -->
      <g transform="translate(24.816875 369.06387) scale(0.1 -0.1)">
       <use xlink:href="#DejaVuSans-30"/>
       <use xlink:href="#DejaVuSans-2e" x="63.623047"/>
       <use xlink:href="#DejaVuSans-31" x="95.410156"/>
      </g>
     </g>
    </g>
    <g id="ytick_13">
     <g id="line2d_78">
      <g>
       <use xlink:href="#m675c4dc182" x="47.72" y="344.295391" style="stroke: #000000; stroke-width: 0.8"/>
      </g>
     </g>
     <g id="text_33">
      <!-- 0.2 -->
      <g transform="translate(24.816875 348.094609) scale(0.1 -0.1)">
       <use xlink:href="#DejaVuSans-30"/>
       <use xlink:href="#DejaVuSans-2e" x="63.623047"/>
       <use xlink:href="#DejaVuSans-32" x="95.410156"/>
      </g>
     </g>
    </g>
    <g id="ytick_14">
     <g id="line2d_79">
      <g>
       <use xlink:href="#m675c4dc182" x="47.72" y="323.32613" style="stroke: #000000; stroke-width: 0.8"/>
      </g>
     </g>
     <g id="text_34">
      <!-- 0.3 -->
      <g transform="translate(24.816875 327.125348) scale(0.1 -0.1)">
       <use xlink:href="#DejaVuSans-30"/>
       <use xlink:href="#DejaVuSans-2e" x="63.623047"/>
       <use xlink:href="#DejaVuSans-33" x="95.410156"/>
      </g>
     </g>
    </g>
    <g id="ytick_15">
     <g id="line2d_80">
      <g>
       <use xlink:href="#m675c4dc182" x="47.72" y="302.356869" style="stroke: #000000; stroke-width: 0.8"/>
      </g>
     </g>
     <g id="text_35">
      <!-- 0.4 -->
      <g transform="translate(24.816875 306.156087) scale(0.1 -0.1)">
       <use xlink:href="#DejaVuSans-30"/>
       <use xlink:href="#DejaVuSans-2e" x="63.623047"/>
       <use xlink:href="#DejaVuSans-34" x="95.410156"/>
      </g>
     </g>
    </g>
    <g id="text_36">
     <!-- EMG LG (mV) -->
     <g transform="translate(18.737187 374.332025) rotate(-90) scale(0.1 -0.1)">
      <defs>
       <path id="DejaVuSans-4c" d="M 628 4666 
L 1259 4666 
L 1259 531 
L 3531 531 
L 3531 0 
L 628 0 
L 628 4666 
z
" transform="scale(0.015625)"/>
      </defs>
      <use xlink:href="#DejaVuSans-45"/>
      <use xlink:href="#DejaVuSans-4d" x="63.183594"/>
      <use xlink:href="#DejaVuSans-47" x="149.462891"/>
      <use xlink:href="#DejaVuSans-20" x="226.953125"/>
      <use xlink:href="#DejaVuSans-4c" x="258.740234"/>
      <use xlink:href="#DejaVuSans-47" x="314.453125"/>
      <use xlink:href="#DejaVuSans-20" x="391.943359"/>
      <use xlink:href="#DejaVuSans-28" x="423.730469"/>
      <use xlink:href="#DejaVuSans-6d" x="462.744141"/>
      <use xlink:href="#DejaVuSans-56" x="560.15625"/>
      <use xlink:href="#DejaVuSans-29" x="628.564453"/>
     </g>
    </g>
   </g>
   <g id="line2d_81">
    <path d="M 52.63959 383.959363 
L 63.127615 383.428289 
L 70.038725 383.496408 
L 72.958579 383.427574 
L 87.486372 383.576724 
L 129.477951 380.022784 
L 171.315943 377.505659 
L 204.787046 358.665878 
L 206.529155 366.718855 
L 236.49881 366.336808 
" clip-path="url(#p679256907c)" style="fill: none; stroke: #000000; stroke-opacity: 0.5; stroke-width: 1.5; stroke-linecap: square"/>
   </g>
   <g id="line2d_82">
    <path d="M 50.279763 383.361697 
L 58.55268 383.376003 
L 65.861883 383.136597 
L 75.777238 382.957954 
L 91.331043 382.447178 
L 126.603077 379.302258 
L 157.368912 378.944826 
L 166.174594 373.46967 
L 202.678255 366.182585 
L 196.649608 365.746796 
" clip-path="url(#p679256907c)" style="fill: none; stroke: #000000; stroke-opacity: 0.5; stroke-width: 1.5; stroke-linecap: square"/>
   </g>
   <g id="line2d_83">
    <path d="M 49.514368 384.356981 
L 53.60995 384.372824 
L 66.381913 383.835074 
L 71.910014 383.193458 
L 85.902104 381.04179 
L 127.012663 377.811125 
L 167.342863 379.738094 
L 173.277268 372.450051 
L 217.474618 366.877057 
L 218.789929 369.440479 
" clip-path="url(#p679256907c)" style="fill: none; stroke: #000000; stroke-opacity: 0.5; stroke-width: 1.5; stroke-linecap: square"/>
   </g>
   <g id="line2d_84">
    <path d="M 50.438832 384.877974 
L 56.044957 384.511749 
L 66.571228 383.492047 
L 73.281316 383.130157 
L 86.52079 381.442845 
L 126.680676 370.593766 
L 166.248018 357.440929 
L 179.525931 348.6789 
L 171.577556 350.505278 
L 189.395623 343.239684 
" clip-path="url(#p679256907c)" style="fill: none; stroke: #000000; stroke-opacity: 0.5; stroke-width: 1.5; stroke-linecap: square"/>
   </g>
   <g id="line2d_85">
    <path d="M 49.906609 383.290249 
L 57.7982 383.339365 
L 64.402898 383.206914 
L 72.475334 382.959004 
L 88.108588 380.032113 
L 128.914684 378.857626 
L 169.624003 338.595597 
L 200.419695 296.330172 
L 204.30143 306.015175 
L 202.405793 302.300328 
" clip-path="url(#p679256907c)" style="fill: none; stroke: #000000; stroke-opacity: 0.5; stroke-width: 1.5; stroke-linecap: square"/>
   </g>
   <g id="line2d_86">
    <path d="M 49.633589 383.918594 
L 55.541036 382.66338 
L 58.396888 384.155263 
L 71.834891 383.137272 
L 86.863335 381.386726 
L 101.017217 379.708881 
L 126.535922 375.951917 
L 171.114748 352.812607 
L 199.261897 331.493645 
L 190.318553 351.561726 
" clip-path="url(#p679256907c)" style="fill: none; stroke: #000000; stroke-opacity: 0.5; stroke-width: 1.5; stroke-linecap: square"/>
   </g>
   <g id="line2d_87">
    <path d="M 56.376531 384.036275 
L 55.770215 383.807903 
L 64.197027 383.166709 
L 71.711621 383.403446 
L 86.618375 382.761884 
L 101.712805 380.485523 
L 125.308426 378.538387 
L 188.822081 352.293368 
L 197.505128 358.991233 
L 202.7551 337.435776 
" clip-path="url(#p679256907c)" style="fill: none; stroke: #000000; stroke-opacity: 0.5; stroke-width: 1.5; stroke-linecap: square"/>
   </g>
   <g id="line2d_88">
    <path d="M 47.72 383.195256 
L 49.701075 383.223733 
L 47.93111 383.062779 
L 53.412235 382.986245 
L 70.133257 381.910162 
L 84.657438 381.372156 
L 125.32358 374.925504 
L 163.143025 354.079278 
L 213.972647 325.865891 
L 200.111332 338.008635 
" clip-path="url(#p679256907c)" style="fill: none; stroke: #000000; stroke-opacity: 0.5; stroke-width: 1.5; stroke-linecap: square"/>
   </g>
   <g id="line2d_89">
    <path d="M 48.550795 382.619784 
L 56.453448 382.800281 
L 61.607127 381.810177 
L 66.228459 382.163637 
L 123.248694 375.990311 
L 137.801778 372.846988 
L 165.537183 369.827593 
L 184.607458 372.372741 
L 211.063018 353.130441 
L 200.236061 355.387505 
" clip-path="url(#p679256907c)" style="fill: none; stroke: #000000; stroke-opacity: 0.5; stroke-width: 1.5; stroke-linecap: square"/>
   </g>
   <g id="line2d_90">
    <path d="M 47.906172 385.104705 
L 54.982782 384.669216 
L 60.612478 384.813834 
L 69.473238 384.658588 
L 86.125371 384.160211 
L 124.490709 382.762503 
L 161.607091 379.590888 
L 188.279875 370.263785 
L 212.634227 372.938606 
L 205.479443 380.214501 
" clip-path="url(#p679256907c)" style="fill: none; stroke: #000000; stroke-opacity: 0.5; stroke-width: 1.5; stroke-linecap: square"/>
   </g>
   <g id="line2d_91">
    <path d="M 49.94654 384.604004 
L 56.540331 384.282453 
L 59.110305 383.68107 
L 71.498785 382.806952 
L 89.126335 376.558159 
L 126.819056 367.897511 
L 158.204228 345.782229 
L 168.727359 337.868421 
L 177.356048 347.921112 
L 200.442292 316.943209 
" clip-path="url(#p679256907c)" style="fill: none; stroke: #000000; stroke-opacity: 0.5; stroke-width: 1.5; stroke-linecap: square"/>
   </g>
   <g id="line2d_92">
    <path d="M 50.439648 385.064238 
L 63.199859 384.575913 
L 75.331853 384.93391 
L 91.434123 383.590328 
L 105.043229 383.099792 
L 173.292504 379.577322 
L 196.985675 379.702131 
L 222.145406 366.979187 
L 246.42651 372.245398 
L 277.2 376.28884 
" clip-path="url(#p679256907c)" style="fill: none; stroke: #000000; stroke-opacity: 0.5; stroke-width: 1.5; stroke-linecap: square"/>
   </g>
   <g id="line2d_93">
    <path d="M 48.623938 382.888837 
L 54.861398 383.101694 
L 61.145828 383.253322 
L 70.604208 380.400088 
L 88.914512 378.827361 
L 127.611962 375.8952 
L 168.151366 362.77091 
L 177.758574 363.859278 
L 189.4805 355.407359 
L 207.961718 350.328266 
" clip-path="url(#p679256907c)" style="fill: none; stroke: #000000; stroke-opacity: 0.5; stroke-width: 1.5; stroke-linecap: square"/>
   </g>
   <g id="line2d_94">
    <path d="M 51.960719 382.333025 
L 54.633274 382.69252 
L 62.197611 382.32721 
L 71.176162 381.461384 
L 86.828758 381.263357 
L 122.200321 374.842414 
L 141.938519 375.449579 
L 164.631314 363.130672 
L 172.159476 367.953787 
L 185.393033 363.348569 
" clip-path="url(#p679256907c)" style="fill: none; stroke: #000000; stroke-opacity: 0.5; stroke-width: 1.5; stroke-linecap: square"/>
   </g>
   <g id="line2d_95">
    <path d="M 49.645677 383.596576 
L 56.100606 383.485257 
L 64.51828 381.904032 
L 71.272091 381.988672 
L 88.962759 379.35168 
L 128.503859 368.718856 
L 162.480834 358.679001 
L 193.212177 351.312066 
L 200.220779 345.882865 
L 203.810726 355.77475 
" clip-path="url(#p679256907c)" style="fill: none; stroke: #000000; stroke-opacity: 0.5; stroke-width: 1.5; stroke-linecap: square"/>
   </g>
   <g id="line2d_96">
    <path d="M 49.245921 384.035455 
L 51.323638 383.776044 
L 58.560581 382.998325 
L 67.035846 383.389753 
L 81.80962 382.39854 
L 108.904457 379.694047 
L 155.833289 371.301491 
L 172.91708 363.297412 
L 183.593248 356.269935 
L 183.055481 369.1599 
" clip-path="url(#p679256907c)" style="fill: none; stroke: #000000; stroke-opacity: 0.5; stroke-width: 1.5; stroke-linecap: square"/>
   </g>
   <g id="line2d_97">
    <path d="M 48.131308 385.162019 
L 54.172923 384.051855 
L 62.990424 384.444181 
L 70.987134 383.069472 
L 87.472954 380.803888 
L 113.60078 375.226195 
L 120.483678 368.66836 
L 164.68981 364.120393 
L 200.022217 348.640266 
L 192.139051 347.280272 
" clip-path="url(#p679256907c)" style="fill: none; stroke: #000000; stroke-opacity: 0.5; stroke-width: 1.5; stroke-linecap: square"/>
   </g>
   <g id="line2d_98">
    <path d="M 50.744522 382.721197 
L 55.756444 381.828091 
L 65.989548 382.506679 
L 74.765112 382.435985 
L 92.835595 380.59965 
L 131.872609 380.738943 
L 172.62182 370.12471 
L 203.190894 371.66573 
L 213.656799 370.951137 
L 264.255217 362.27682 
" clip-path="url(#p679256907c)" style="fill: none; stroke: #000000; stroke-opacity: 0.5; stroke-width: 1.5; stroke-linecap: square"/>
   </g>
   <g id="line2d_99">
    <path d="M 50.811653 384.716849 
L 55.635399 384.383653 
L 64.277271 383.184388 
L 73.364694 383.253181 
L 87.621642 382.367764 
L 102.9815 379.336675 
L 129.394938 371.372486 
L 176.851405 347.290884 
L 169.080877 355.968529 
L 193.762892 344.897346 
" clip-path="url(#p679256907c)" style="fill: none; stroke: #000000; stroke-opacity: 0.5; stroke-width: 1.5; stroke-linecap: square"/>
   </g>
   <g id="line2d_100">
    <path d="M 50.515905 383.348625 
L 52.017178 383.113875 
L 56.542835 383.059162 
L 64.244231 382.366896 
L 87.327346 380.893236 
L 128.419613 378.70819 
L 167.526219 363.039126 
L 200.819991 355.974607 
L 196.155805 349.535397 
L 208.882914 336.215677 
" clip-path="url(#p679256907c)" style="fill: none; stroke: #000000; stroke-opacity: 0.5; stroke-width: 1.5; stroke-linecap: square"/>
   </g>
   <g id="line2d_101">
    <path d="M 48.049299 384.253043 
L 54.903022 384.248507 
L 63.549996 383.597145 
L 72.260422 378.852184 
L 77.050307 381.466625 
L 88.583691 379.984482 
L 128.293419 375.597069 
L 167.293155 360.057813 
L 168.879881 328.22772 
L 201.187279 341.612767 
" clip-path="url(#p679256907c)" style="fill: none; stroke: #000000; stroke-opacity: 0.5; stroke-width: 1.5; stroke-linecap: square"/>
   </g>
   <g id="line2d_102">
    <path d="M 53.429109 382.699583 
L 61.800908 382.338767 
L 68.232101 382.444195 
L 77.73393 382.366668 
L 89.588594 381.922197 
L 133.869661 380.436975 
L 170.87761 375.677711 
L 196.829188 372.548446 
L 233.394328 367.880151 
L 246.037705 357.482408 
" clip-path="url(#p679256907c)" style="fill: none; stroke: #000000; stroke-opacity: 0.5; stroke-width: 1.5; stroke-linecap: square"/>
   </g>
   <g id="line2d_103">
    <path d="M 48.149521 385.014577 
L 55.025738 384.430367 
L 62.465524 383.129476 
L 69.805346 382.076128 
L 86.851488 381.791 
L 104.16887 379.686561 
L 127.444391 379.40887 
L 169.609194 363.947459 
L 182.875256 357.235315 
L 187.072179 363.506149 
" clip-path="url(#p679256907c)" style="fill: none; stroke: #000000; stroke-opacity: 0.5; stroke-width: 1.5; stroke-linecap: square"/>
   </g>
   <g id="line2d_104">
    <path d="M 48.176721 384.772282 
L 49.419779 385.577627 
L 50.15808 383.977246 
L 60.436938 383.999742 
L 71.76865 381.665375 
L 82.731213 378.507848 
L 101.274164 377.328432 
L 112.001374 371.50498 
L 162.976803 344.521946 
L 196.103701 351.765467 
" clip-path="url(#p679256907c)" style="fill: none; stroke: #000000; stroke-opacity: 0.5; stroke-width: 1.5; stroke-linecap: square"/>
   </g>
   <g id="line2d_105">
    <path d="M 49.95141 384.597413 
L 56.255788 384.48212 
L 64.62749 383.549635 
L 72.003027 382.977458 
L 88.358174 382.669679 
L 129.584844 379.019576 
L 168.902804 372.297489 
L 206.788098 350.593138 
L 232.927911 350.428728 
L 242.793356 347.811684 
" clip-path="url(#p679256907c)" style="fill: none; stroke: #000000; stroke-opacity: 0.5; stroke-width: 1.5; stroke-linecap: square"/>
   </g>
   <g id="patch_9">
    <path d="M 47.72 390.04 
L 47.72 291.867799 
" style="fill: none; stroke: #000000; stroke-width: 0.8; stroke-linejoin: miter; stroke-linecap: square"/>
   </g>
   <g id="patch_10">
    <path d="M 47.72 390.04 
L 277.2 390.04 
" style="fill: none; stroke: #000000; stroke-width: 0.8; stroke-linejoin: miter; stroke-linecap: square"/>
   </g>
  </g>
 </g>
 <defs>
  <clipPath id="p9057dc2daa">
   <rect x="47.72" y="11.603398" width="229.48" height="98.172201"/>
  </clipPath>
  <clipPath id="pa182bda6fe">
   <rect x="47.72" y="151.735598" width="229.48" height="98.172201"/>
  </clipPath>
  <clipPath id="p679256907c">
   <rect x="47.72" y="291.867799" width="229.48" height="98.172201"/>
  </clipPath>
 </defs>
</svg>
